<svg id="SvgjsSvg1083" xmlns="http://www.w3.org/2000/svg" version="1.1" xmlns:xlink="http://www.w3.org/1999/xlink" xmlns:svgjs="http://svgjs.com/svgjs" width="63" height="72" viewBox="0 0 63 72"><title>Forma 3</title><desc>Created with Avocode.</desc><defs id="SvgjsDefs1084"></defs><path id="SvgjsPath1085" d="M778.233 2480.95L779.721 2480.95C779.773 2481.1099999999997 779.836 2481.2599999999998 779.907 2481.3999999999996L777.903 2483.3999999999996C777.455 2483.8499999999995 777.455 2484.5799999999995 777.903 2485.0299999999997C778.1270000000001 2485.2499999999995 778.4200000000001 2485.3599999999997 778.714 2485.3599999999997C779.0070000000001 2485.3599999999997 779.301 2485.2499999999995 779.5250000000001 2485.0299999999997L781.5290000000001 2483.0199999999995C782.0110000000001 2483.2599999999993 782.5520000000001 2483.3999999999996 783.1260000000001 2483.3999999999996C784.7060000000001 2483.3999999999996 786.051 2482.3699999999994 786.5300000000001 2480.95L791.6890000000001 2480.95C792.3220000000001 2480.95 792.8360000000001 2480.4399999999996 792.8360000000001 2479.7999999999997C792.8360000000001 2479.1699999999996 792.3220000000001 2478.66 791.6890000000001 2478.66L786.5300000000001 2478.66C786.4780000000001 2478.5 786.416 2478.35 786.344 2478.21L792.5 2472.05C792.948 2471.6000000000004 792.948 2470.88 792.5 2470.4300000000003C792.052 2469.9800000000005 791.326 2469.9800000000005 790.878 2470.4300000000003L784.7220000000001 2476.59C784.2410000000001 2476.3500000000004 783.6990000000001 2476.21 783.1260000000001 2476.21C781.5450000000001 2476.21 780.2010000000001 2477.2400000000002 779.7210000000001 2478.66L778.2330000000001 2478.66C777.599 2478.66 777.086 2479.17 777.086 2479.7999999999997C777.086 2480.4399999999996 777.599 2480.95 778.2330000000001 2480.95ZM783.126 2478.5C783.842 2478.5 784.425 2479.09 784.425 2479.8C784.425 2480.52 783.842 2481.1000000000004 783.126 2481.1000000000004C782.409 2481.1000000000004 781.826 2480.5200000000004 781.826 2479.8C781.826 2479.09 782.409 2478.5 783.126 2478.5ZM776.932 2499.42L777.08 2497.05C779.013 2497.73 781.039 2498.0800000000004 783.1260000000001 2498.0800000000004C793.2020000000001 2498.0800000000004 801.3990000000001 2489.8800000000006 801.3990000000001 2479.8C801.3990000000001 2469.73 793.2020000000001 2461.53 783.1260000000001 2461.53C773.4350000000001 2461.53 765.484 2469.11 764.8900000000001 2478.6600000000003L759.2120000000001 2478.6600000000003C756.5030000000002 2478.6600000000003 753.9900000000001 2479.7400000000002 752.1350000000001 2481.7200000000003C750.2800000000001 2483.69 749.3520000000001 2486.2700000000004 749.5210000000001 2488.9700000000003L750.1740000000001 2499.42C750.186 2503.94 752.0900000000001 2507.98 755.0660000000001 2510.66L755.0660000000001 2512.48L753.0510000000002 2515.51L743.6140000000001 2518.0800000000004C740.9940000000001 2518.8 739.1640000000001 2521.1900000000005 739.1640000000001 2523.9100000000003L739.1640000000001 2528.7300000000005C739.1640000000001 2530.7100000000005 740.7760000000001 2532.3300000000004 742.7570000000001 2532.3300000000004L784.349 2532.3300000000004C786.33 2532.3300000000004 787.9430000000001 2530.7100000000005 787.9430000000001 2528.7300000000005L787.9430000000001 2523.9100000000003C787.9430000000001 2521.1900000000005 786.1120000000001 2518.8 783.4920000000001 2518.0800000000004L774.056 2515.51L772.0400000000001 2512.48L772.0400000000001 2510.66C775.0160000000001 2507.98 776.9200000000001 2503.94 776.9320000000001 2499.42ZM781.979 2463.87L781.979 2466.35C781.979 2466.98 782.4920000000001 2467.5 783.1260000000001 2467.5C783.7590000000001 2467.5 784.2730000000001 2466.98 784.2730000000001 2466.35L784.2730000000001 2463.87C792.1720000000001 2464.43 798.5020000000002 2470.7599999999998 799.0640000000002 2478.66C799.0520000000002 2478.66 799.0400000000002 2478.66 799.0290000000002 2478.66L796.5820000000002 2478.66C795.9490000000002 2478.66 795.4350000000002 2479.17 795.4350000000002 2479.7999999999997C795.4350000000002 2480.4399999999996 795.9490000000002 2480.95 796.5820000000002 2480.95L799.0290000000002 2480.95C799.0400000000002 2480.95 799.0520000000002 2480.95 799.0640000000002 2480.95C798.5020000000002 2488.85 792.1720000000001 2495.18 784.2730000000001 2495.74L784.2730000000001 2493.2599999999998C784.2730000000001 2492.6299999999997 783.7590000000001 2492.1099999999997 783.1260000000001 2492.1099999999997C782.4920000000001 2492.1099999999997 781.979 2492.6299999999997 781.979 2493.2599999999998L781.979 2495.74C780.339 2495.6299999999997 778.749 2495.2599999999998 777.23 2494.66L777.585 2488.97C777.754 2486.27 776.826 2483.6899999999996 774.971 2481.72C773.117 2479.74 770.603 2478.66 767.894 2478.66L767.188 2478.66C767.751 2470.7599999999998 774.08 2464.43 781.979 2463.87ZM752.468 2499.43C752.813 2496.0099999999998 754.722 2493.87 755.433 2493.18C757.496 2493.1499999999996 766.074 2492.93 771.688 2490.97C772.632 2492.3999999999996 774.639 2495.8399999999997 774.639 2499.3799999999997C774.639 2506.16 769.666 2511.68 763.553 2511.68C757.456 2511.68 752.493 2506.19 752.468 2499.43ZM753.807 2483.29C755.2230000000001 2481.7799999999997 757.143 2480.95 759.212 2480.95L767.894 2480.95C769.963 2480.95 771.883 2481.7799999999997 773.299 2483.29C774.716 2484.8 775.425 2486.7599999999998 775.2959999999999 2488.83L775.0799999999999 2492.2799999999997C774.1089999999999 2490.31 773.1039999999999 2488.99 773.0229999999999 2488.89C772.7079999999999 2488.48 772.1619999999999 2488.33 771.685 2488.5299999999997C765.925 2490.8599999999997 755.0989999999999 2490.89 754.9899999999999 2490.89C754.733 2490.89 754.483 2490.98 754.281 2491.1299999999997C754.2009999999999 2491.2 753.1419999999999 2492.0499999999997 752.112 2493.6499999999996L751.81 2488.8299999999995C751.6809999999999 2486.7599999999993 752.39 2484.7999999999993 753.8069999999999 2483.2899999999995ZM741.457 2528.73L741.457 2523.91C741.457 2522.22 742.593 2520.74 744.218 2520.29L753.271 2517.82L756.8779999999999 2523.2400000000002C757.2729999999999 2523.8300000000004 757.9069999999999 2524.21 758.617 2524.28C758.6949999999999 2524.2900000000004 758.774 2524.2900000000004 758.853 2524.2900000000004C759.332 2524.2900000000004 759.795 2524.1400000000003 760.188 2523.8800000000006C760.387 2524.4100000000008 760.709 2524.8800000000006 761.119 2525.2600000000007L760.14 2530.0300000000007L750.02 2530.0300000000007L750.02 2526.290000000001C750.02 2525.650000000001 749.507 2525.140000000001 748.874 2525.140000000001C748.24 2525.140000000001 747.727 2525.650000000001 747.727 2526.290000000001L747.727 2530.0300000000007L742.757 2530.0300000000007C742.04 2530.0300000000007 741.457 2529.4500000000007 741.457 2528.7300000000005ZM785.649 2523.91L785.649 2528.73C785.649 2529.45 785.066 2530.03 784.349 2530.03L779.379 2530.03L779.379 2526.2900000000004C779.379 2525.6500000000005 778.866 2525.1400000000003 778.2330000000001 2525.1400000000003C777.599 2525.1400000000003 777.086 2525.6500000000005 777.086 2526.2900000000004L777.086 2530.03L766.966 2530.03L765.987 2525.26C766.3969999999999 2524.88 766.7189999999999 2524.4100000000003 766.919 2523.88C767.311 2524.1400000000003 767.774 2524.29 768.254 2524.29C768.332 2524.29 768.4110000000001 2524.29 768.489 2524.2799999999997C769.1990000000001 2524.2099999999996 769.8330000000001 2523.83 770.2280000000001 2523.24L773.835 2517.8199999999997L782.888 2520.2899999999995C784.514 2520.7399999999993 785.649 2522.2199999999993 785.649 2523.9099999999994ZM763.553 2517.45L757.447 2512.37C759.279 2513.4 761.355 2513.98 763.553 2513.98C765.751 2513.98 767.827 2513.4 769.659 2512.37ZM766.811 2520.58L765.2520000000001 2519.02L770.647 2514.53L771.961 2516.5L768.32 2521.96C768.3140000000001 2521.9700000000003 768.3000000000001 2521.9900000000002 768.264 2522C768.2280000000001 2522 768.21 2521.98 768.202 2521.97ZM760.295 2520.58L758.904 2521.97C758.896 2521.98 758.878 2522 758.842 2522C758.807 2521.99 758.792 2521.97 758.786 2521.96L755.145 2516.5L756.46 2514.53L761.854 2519.02L760.296 2520.58ZM764.853 2522.62C764.853 2523.33 764.27 2523.92 763.553 2523.92C762.836 2523.92 762.253 2523.33 762.253 2522.62L762.253 2521.87L763.553 2520.5699999999997L764.853 2521.87ZM763.553 2526.21C763.649 2526.21 763.744 2526.21 763.838 2526.2L764.625 2530.0299999999997L762.481 2530.0299999999997L763.268 2526.2C763.3620000000001 2526.21 763.457 2526.21 763.553 2526.21Z " fill="#347c9f" fill-opacity="1" transform="matrix(1,0,0,1,-739,-2461)"></path></svg>