<svg id="SvgjsSvg1086" xmlns="http://www.w3.org/2000/svg" version="1.1" xmlns:xlink="http://www.w3.org/1999/xlink" xmlns:svgjs="http://svgjs.com/svgjs" width="63" height="72" viewBox="0 0 63 72"><title>Forma 4</title><desc>Created with Avocode.</desc><defs id="SvgjsDefs1087"></defs><path id="SvgjsPath1088" d="M1018.93 2499.42L1019.0799999999999 2497.05C1021.0099999999999 2497.73 1023.04 2498.0800000000004 1025.1299999999999 2498.0800000000004C1035.1999999999998 2498.0800000000004 1043.3999999999999 2489.8800000000006 1043.3999999999999 2479.8C1043.3999999999999 2469.73 1035.1999999999998 2461.53 1025.1299999999999 2461.53C1015.4399999999998 2461.53 1007.4799999999999 2469.11 1006.8899999999999 2478.6600000000003L1001.2099999999999 2478.6600000000003C998.5029999999999 2478.6600000000003 995.9899999999999 2479.7400000000002 994.1349999999999 2481.7200000000003C992.2799999999999 2483.69 991.3519999999999 2486.2700000000004 991.5209999999998 2488.9700000000003L992.1739999999999 2499.42C992.1859999999998 2503.94 994.0899999999999 2507.98 997.0659999999999 2510.66L997.0659999999999 2512.48L995.0509999999999 2515.51L985.6139999999999 2518.0800000000004C982.9939999999999 2518.8 981.1639999999999 2521.1900000000005 981.1639999999999 2523.9100000000003L981.1639999999999 2528.7300000000005C981.1639999999999 2530.7100000000005 982.7759999999998 2532.3300000000004 984.7569999999998 2532.3300000000004L1026.35 2532.3300000000004C1028.33 2532.3300000000004 1029.9399999999998 2530.7100000000005 1029.9399999999998 2528.7300000000005L1029.9399999999998 2523.9100000000003C1029.9399999999998 2521.1900000000005 1028.11 2518.8 1025.4899999999998 2518.0800000000004L1016.0599999999998 2515.51L1014.0399999999998 2512.48L1014.0399999999998 2510.66C1017.0199999999999 2507.98 1018.9199999999998 2503.94 1018.9299999999998 2499.42ZM1025.13 2463.82C1033.94 2463.82 1041.1100000000001 2470.9900000000002 1041.1100000000001 2479.8C1041.1100000000001 2488.61 1033.94 2495.78 1025.13 2495.78C1023.0800000000002 2495.78 1021.1000000000001 2495.4 1019.2300000000001 2494.6600000000003L1019.5900000000001 2488.9700000000003C1019.6000000000001 2488.7300000000005 1019.6000000000001 2488.5000000000005 1019.6000000000001 2488.26C1020.1900000000002 2488.5600000000004 1020.8400000000001 2488.82 1021.5300000000001 2489.0200000000004L1021.5300000000001 2489.5900000000006C1021.5300000000001 2490.2200000000007 1022.0500000000001 2490.7400000000007 1022.6800000000001 2490.7400000000007C1023.3100000000001 2490.7400000000007 1023.83 2490.2200000000007 1023.83 2489.5900000000006L1023.83 2489.4500000000007C1024.25 2489.4900000000007 1024.69 2489.5100000000007 1025.13 2489.5100000000007C1025.5700000000002 2489.5100000000007 1026 2489.4900000000007 1026.43 2489.4500000000007L1026.43 2489.5900000000006C1026.43 2490.2200000000007 1026.94 2490.7400000000007 1027.5700000000002 2490.7400000000007C1028.2100000000003 2490.7400000000007 1028.7200000000003 2490.2200000000007 1028.7200000000003 2489.5900000000006L1028.7200000000003 2489.0200000000004C1031.6300000000003 2488.1700000000005 1033.6100000000004 2486.3000000000006 1033.6100000000004 2484.0800000000004C1033.6100000000004 2481.8700000000003 1031.6300000000003 2480.0000000000005 1028.7200000000003 2479.1500000000005L1028.7200000000003 2473.0000000000005C1030.3400000000001 2473.6200000000003 1031.3200000000002 2474.6000000000004 1031.3200000000002 2475.5200000000004C1031.3200000000002 2476.1600000000003 1031.8300000000002 2476.6700000000005 1032.4700000000003 2476.6700000000005C1033.1000000000004 2476.6700000000005 1033.6100000000004 2476.1600000000003 1033.6100000000004 2475.5200000000004C1033.6100000000004 2473.3100000000004 1031.6300000000003 2471.4400000000005 1028.7200000000003 2470.5900000000006L1028.7200000000003 2470.0200000000004C1028.7200000000003 2469.3800000000006 1028.2100000000003 2468.8700000000003 1027.5700000000002 2468.8700000000003C1026.94 2468.8700000000003 1026.43 2469.3800000000006 1026.43 2470.0200000000004L1026.43 2470.1600000000003C1026 2470.1200000000003 1025.5700000000002 2470.09 1025.13 2470.09C1024.68 2470.09 1024.25 2470.1200000000003 1023.8300000000002 2470.1600000000003L1023.8300000000002 2470.0200000000004C1023.8300000000002 2469.3800000000006 1023.3100000000002 2468.8700000000003 1022.6800000000002 2468.8700000000003C1022.0500000000002 2468.8700000000003 1021.5300000000002 2469.3800000000006 1021.5300000000002 2470.0200000000004L1021.5300000000002 2470.5900000000006C1018.6200000000002 2471.4400000000005 1016.6400000000002 2473.3100000000004 1016.6400000000002 2475.5200000000004C1016.6400000000002 2477.7400000000002 1018.6200000000002 2479.6100000000006 1021.5300000000002 2480.4600000000005L1021.5300000000002 2486.6100000000006C1020.3400000000001 2486.1700000000005 1019.4600000000002 2485.5400000000004 1018.9700000000003 2484.9000000000005C1018.5300000000002 2483.7400000000007 1017.8600000000002 2482.6600000000008 1016.9700000000003 2481.7200000000007C1015.1200000000002 2479.7400000000007 1012.6000000000003 2478.6600000000008 1009.8900000000002 2478.6600000000008L1009.1900000000002 2478.6600000000008C1009.7800000000002 2470.3800000000006 1016.7000000000002 2463.8200000000006 1025.13 2463.8200000000006ZM994.468 2499.43C994.813 2496.0099999999998 996.722 2493.87 997.433 2493.18C999.496 2493.1499999999996 1008.0699999999999 2492.93 1013.6899999999999 2490.97C1014.63 2492.3999999999996 1016.64 2495.8399999999997 1016.64 2499.3799999999997C1016.64 2506.16 1011.67 2511.68 1005.55 2511.68C999.4559999999999 2511.68 994.4929999999999 2506.19 994.468 2499.43ZM995.807 2483.29C997.2230000000001 2481.7799999999997 999.143 2480.95 1001.21 2480.95L1009.89 2480.95C1011.96 2480.95 1013.88 2481.7799999999997 1015.3 2483.29C1016.7199999999999 2484.8 1017.43 2486.7599999999998 1017.3 2488.83L1017.0799999999999 2492.2799999999997C1016.1099999999999 2490.31 1015.0999999999999 2488.99 1015.02 2488.89C1014.71 2488.48 1014.16 2488.33 1013.6899999999999 2488.5299999999997C1007.93 2490.8599999999997 997.0989999999999 2490.89 996.9899999999999 2490.89C996.733 2490.89 996.483 2490.98 996.281 2491.1299999999997C996.2009999999999 2491.2 995.1419999999999 2492.0499999999997 994.112 2493.6499999999996L993.81 2488.8299999999995C993.6809999999999 2486.7599999999993 994.39 2484.7999999999993 995.8069999999999 2483.2899999999995ZM983.457 2528.73L983.457 2523.91C983.457 2522.22 984.593 2520.74 986.218 2520.29L995.271 2517.82L998.8779999999999 2523.2400000000002C999.2729999999999 2523.8300000000004 999.9069999999999 2524.21 1000.6199999999999 2524.28C1000.6999999999999 2524.2900000000004 1000.7699999999999 2524.2900000000004 1000.8499999999999 2524.2900000000004C1001.3299999999999 2524.2900000000004 1001.8 2524.1400000000003 1002.1899999999999 2523.8800000000006C1002.39 2524.4100000000008 1002.7099999999999 2524.8800000000006 1003.1199999999999 2525.2600000000007L1002.1399999999999 2530.0300000000007L992.0199999999999 2530.0300000000007L992.0199999999999 2526.290000000001C992.0199999999999 2525.650000000001 991.5069999999998 2525.140000000001 990.8739999999999 2525.140000000001C990.2399999999999 2525.140000000001 989.7269999999999 2525.650000000001 989.7269999999999 2526.290000000001L989.7269999999999 2530.0300000000007L984.7569999999998 2530.0300000000007C984.0399999999998 2530.0300000000007 983.4569999999999 2529.4500000000007 983.4569999999999 2528.7300000000005ZM1005.55 2517.45L999.447 2512.37C1001.28 2513.4 1003.35 2513.98 1005.55 2513.98C1007.75 2513.98 1009.8299999999999 2513.4 1011.66 2512.37ZM1007.25 2519.02L1012.65 2514.53L1013.9599999999999 2516.5L1010.3199999999999 2521.96C1010.31 2521.9700000000003 1010.3 2521.9900000000002 1010.26 2522C1010.23 2522 1010.21 2521.98 1010.2 2521.97ZM1000.9 2521.97C1000.9 2521.98 1000.88 2522 1000.84 2522C1000.8100000000001 2521.99 1000.7900000000001 2521.97 1000.7900000000001 2521.96L997.1450000000001 2516.5L998.4600000000002 2514.53L1003.8500000000001 2519.02L1002.3000000000002 2520.58ZM1023.83 2472.46C1024.24 2472.41 1024.67 2472.39 1025.13 2472.39C1025.5800000000002 2472.39 1026.0100000000002 2472.41 1026.43 2472.46L1026.43 2478.7200000000003C1026 2478.6800000000003 1025.5700000000002 2478.6600000000003 1025.13 2478.6600000000003C1024.67 2478.6600000000003 1024.24 2478.63 1023.8300000000002 2478.5800000000004ZM1025.13 2480.95C1025.5800000000002 2480.95 1026.0100000000002 2480.98 1026.43 2481.02L1026.43 2487.15C1026.01 2487.19 1025.5800000000002 2487.2200000000003 1025.13 2487.2200000000003C1024.67 2487.2200000000003 1024.24 2487.19 1023.8300000000002 2487.1400000000003L1023.8300000000002 2480.8900000000003C1024.2500000000002 2480.9300000000003 1024.68 2480.9500000000003 1025.13 2480.9500000000003ZM1028.72 2481.56C1030.34 2482.18 1031.32 2483.16 1031.32 2484.08C1031.32 2485.0099999999998 1030.34 2485.99 1028.72 2486.61ZM1021.53 2478.04C1019.91 2477.43 1018.93 2476.44 1018.93 2475.52C1018.93 2474.6 1019.91 2473.62 1021.53 2473ZM1006.85 2522.62C1006.85 2523.33 1006.27 2523.92 1005.5500000000001 2523.92C1004.84 2523.92 1004.2500000000001 2523.33 1004.2500000000001 2522.62L1004.2500000000001 2521.87L1005.5500000000001 2520.5699999999997L1006.85 2521.87ZM1005.55 2526.21C1005.65 2526.21 1005.74 2526.21 1005.8399999999999 2526.2L1006.6199999999999 2530.0299999999997L1004.4799999999999 2530.0299999999997L1005.2699999999999 2526.2C1005.3599999999999 2526.21 1005.4599999999999 2526.21 1005.5499999999998 2526.21ZM1027.65 2523.91L1027.65 2528.73C1027.65 2529.45 1027.0700000000002 2530.03 1026.3500000000001 2530.03L1021.3800000000001 2530.03L1021.3800000000001 2526.2900000000004C1021.3800000000001 2525.6500000000005 1020.8700000000001 2525.1400000000003 1020.2300000000001 2525.1400000000003C1019.6000000000001 2525.1400000000003 1019.0900000000001 2525.6500000000005 1019.0900000000001 2526.2900000000004L1019.0900000000001 2530.03L1008.9700000000001 2530.03L1007.9900000000001 2525.26C1008.4000000000001 2524.88 1008.7200000000001 2524.4100000000003 1008.9200000000001 2523.88C1009.3100000000001 2524.1400000000003 1009.7700000000001 2524.29 1010.2500000000001 2524.29C1010.3300000000002 2524.29 1010.4100000000001 2524.29 1010.4900000000001 2524.2799999999997C1011.2000000000002 2524.2099999999996 1011.8300000000002 2523.83 1012.2300000000001 2523.24L1015.8400000000001 2517.8199999999997L1024.89 2520.2899999999995C1026.51 2520.7399999999993 1027.65 2522.2199999999993 1027.65 2523.9099999999994Z " fill="#347c9f" fill-opacity="1" transform="matrix(1,0,0,1,-981,-2461)"></path></svg>