<?xml version="1.0" encoding="UTF-8" ?>
<!DOCTYPE svg PUBLIC "-//W3C//DTD SVG 1.1//EN" "http://www.w3.org/Graphics/SVG/1.1/DTD/svg11.dtd">
<svg width="125pt" height="142pt" viewBox="0 0 125 142" version="1.1" xmlns="http://www.w3.org/2000/svg">
<g id="#347c9fff">
<path fill="#347c9f" opacity="1.00" d=" M 69.35 5.28 C 78.84 -0.49 91.05 -1.42 101.35 2.70 C 111.27 6.58 119.31 15.01 122.64 25.14 C 125.98 35.04 124.78 46.39 119.38 55.34 C 114.96 62.81 107.78 68.56 99.57 71.32 C 91.93 74.00 83.54 73.63 75.86 71.29 C 75.59 76.50 75.55 81.86 73.62 86.79 C 72.01 91.35 69.06 95.29 65.63 98.64 C 65.61 102.32 67.78 105.29 69.84 108.12 C 76.12 109.85 82.46 111.42 88.71 113.29 C 93.51 114.57 97.31 119.00 97.49 124.02 C 97.65 128.17 97.88 132.38 97.28 136.51 C 96.58 139.82 93.23 141.46 90.18 142.00 L 8.48 142.00 C 4.43 142.10 0.87 139.49 0.00 135.56 L 0.00 124.02 C 0.56 119.30 3.67 114.89 8.32 113.50 C 14.77 111.48 21.36 109.94 27.85 108.09 C 29.85 105.25 32.11 102.34 32.03 98.67 C 28.79 95.45 25.92 91.76 24.28 87.45 C 21.82 81.62 22.09 75.19 21.64 69.01 C 21.40 63.69 20.75 58.38 20.79 53.05 C 20.87 44.12 28.11 35.95 36.94 34.70 C 41.72 34.08 46.55 34.50 51.35 34.42 C 52.38 22.58 58.98 11.28 69.35 5.28 M 72.59 8.70 C 63.20 13.75 56.97 23.71 56.03 34.27 C 59.97 34.35 63.87 35.12 67.38 36.98 C 68.67 35.87 70.29 35.35 71.99 35.52 C 80.05 35.53 88.11 35.54 96.17 35.53 C 94.16 33.44 91.73 31.63 90.36 29.01 C 90.80 28.72 91.66 28.14 92.09 27.85 C 95.53 30.50 98.37 33.83 101.35 36.97 C 98.47 39.93 95.77 43.11 92.55 45.71 C 92.15 45.75 91.36 45.84 90.97 45.88 C 90.03 42.53 94.48 40.76 96.21 38.34 C 87.26 38.29 78.31 38.41 69.36 38.27 C 73.32 41.73 76.44 46.46 76.80 51.82 C 77.08 56.72 76.37 61.60 76.17 66.49 C 89.07 71.58 104.90 67.39 113.23 56.21 C 122.49 44.73 122.01 26.89 112.20 15.89 C 102.82 4.58 85.34 1.34 72.59 8.70 M 25.79 50.04 C 24.76 54.72 25.84 59.53 25.92 64.26 C 27.89 62.13 29.51 58.52 32.96 58.84 C 43.06 58.47 53.33 57.89 63.04 54.82 C 64.28 54.52 65.53 53.89 66.84 54.13 C 69.17 56.11 70.37 59.03 71.93 61.59 C 72.07 56.82 73.15 51.68 70.82 47.24 C 68.46 42.46 63.40 39.07 58.02 39.03 C 52.00 38.95 45.97 38.98 39.94 39.02 C 33.44 38.92 27.35 43.76 25.79 50.04 M 32.40 63.46 C 29.38 67.00 26.96 71.27 26.69 76.01 C 26.61 84.75 31.24 93.64 39.02 97.88 C 45.02 101.29 52.76 101.27 58.75 97.83 C 67.07 93.20 71.72 83.29 70.88 73.92 C 70.41 68.52 67.93 63.56 65.11 59.03 C 54.56 62.40 43.40 63.08 32.40 63.46 M 36.79 102.04 C 40.87 105.28 44.81 108.70 48.85 111.99 C 52.86 108.64 56.83 105.25 60.92 102.00 C 53.44 105.94 44.28 105.95 36.79 102.04 M 34.62 106.14 C 33.75 107.45 32.88 108.76 32.01 110.08 C 34.47 113.77 36.93 117.46 39.39 121.16 C 41.41 119.15 43.42 117.14 45.43 115.13 C 41.83 112.13 38.23 109.12 34.62 106.14 M 52.22 115.13 C 54.23 117.14 56.24 119.15 58.27 121.14 C 60.72 117.45 63.19 113.77 65.64 110.08 C 64.77 108.76 63.89 107.45 63.01 106.14 C 59.41 109.13 55.82 112.13 52.22 115.13 M 10.37 117.63 C 7.45 118.36 4.96 120.89 4.76 123.98 C 4.58 127.93 4.38 131.93 4.92 135.86 C 8.22 138.47 13.21 136.58 17.18 137.12 C 17.19 134.48 17.02 131.82 17.31 129.19 C 17.40 127.10 20.60 126.70 21.48 128.48 C 22.01 131.33 21.72 134.25 21.77 137.13 C 28.51 137.14 35.26 137.14 42.00 137.13 C 42.65 133.98 43.30 130.83 43.93 127.68 C 43.34 126.85 42.75 126.01 42.17 125.18 C 40.07 125.54 37.42 126.11 35.97 124.06 C 33.15 120.46 30.89 116.46 28.25 112.73 C 22.30 114.40 16.31 115.91 10.37 117.63 M 69.31 112.75 C 66.68 116.62 64.38 120.74 61.40 124.35 C 59.88 126.16 57.40 125.44 55.40 125.24 C 54.84 126.09 54.29 126.95 53.73 127.80 C 54.37 130.91 55.01 134.03 55.66 137.14 C 62.40 137.13 69.14 137.14 75.88 137.13 C 75.90 134.42 75.70 131.70 76.07 129.01 C 76.36 126.96 79.69 126.81 80.25 128.76 C 80.70 131.52 80.42 134.34 80.47 137.12 C 83.66 137.11 86.85 137.25 90.04 137.09 C 91.32 137.21 92.92 136.50 92.88 135.02 C 93.13 131.32 93.11 127.59 92.88 123.89 C 92.65 120.78 90.06 118.28 87.11 117.58 C 81.20 115.89 75.26 114.32 69.31 112.75 M 47.45 124.50 C 49.89 126.07 51.67 123.16 51.69 120.98 C 50.69 120.04 49.70 119.10 48.70 118.16 C 46.86 119.63 44.83 122.72 47.45 124.50 M 48.68 128.75 C 47.82 131.49 47.21 134.31 46.67 137.13 C 48.10 137.13 49.53 137.13 50.97 137.13 C 50.42 134.29 49.99 131.36 48.68 128.75 Z" />
<path fill="#347c9f" opacity="1.00" d=" M 71.98 18.88 C 74.75 16.48 78.63 17.06 82.01 16.98 C 88.39 17.10 94.78 16.83 101.16 17.09 C 105.19 17.28 108.64 20.91 108.71 24.94 C 108.84 32.66 108.75 40.39 108.75 48.12 C 109.03 52.45 105.46 56.64 101.07 56.80 C 94.97 57.00 88.86 56.79 82.76 56.87 C 82.78 56.17 82.83 54.77 82.85 54.07 C 88.92 53.98 95.00 54.25 101.06 53.97 C 103.98 53.83 106.18 50.95 105.97 48.11 C 106.00 40.38 106.11 32.65 105.91 24.93 C 105.84 21.94 102.97 19.59 100.03 19.83 C 92.36 19.79 84.68 19.72 77.00 19.87 C 73.82 19.83 71.38 22.94 71.75 26.02 C 71.31 27.87 72.64 30.83 70.26 31.62 C 68.10 31.25 69.18 28.48 68.83 26.98 C 68.71 24.00 69.52 20.78 71.98 18.88 Z" />
</g>
</svg>
