<svg id="SvgjsSvg1080" xmlns="http://www.w3.org/2000/svg" version="1.1" xmlns:xlink="http://www.w3.org/1999/xlink" xmlns:svgjs="http://svgjs.com/svgjs" width="63" height="72" viewBox="0 0 63 72"><title>Forma 2</title><desc>Created with Avocode.</desc><defs id="SvgjsDefs1081"></defs><path id="SvgjsPath1082" d="M554.74 2461.53L527.339 2461.53C525.322 2461.53 523.6800000000001 2463.17 523.6800000000001 2465.19L523.6800000000001 2477.71L516.691 2477.71C513.933 2477.71 511.37500000000006 2478.82 509.48600000000005 2480.83C507.59800000000007 2482.84 506.653 2485.46 506.82500000000005 2488.21L507.48900000000003 2498.84C507.502 2503.44 509.44100000000003 2507.56 512.471 2510.27L512.471 2512.13L510.418 2515.21L500.81100000000004 2517.83C498.14300000000003 2518.56 496.27900000000005 2521 496.27900000000005 2523.7599999999998L496.27900000000005 2528.6699999999996C496.27900000000005 2530.6899999999996 497.92100000000005 2532.3299999999995 499.93800000000005 2532.3299999999995L542.2850000000001 2532.3299999999995C544.3020000000001 2532.3299999999995 545.9440000000001 2530.6899999999996 545.9440000000001 2528.6699999999996L545.9440000000001 2523.7599999999998C545.9440000000001 2520.9999999999995 544.08 2518.56 541.412 2517.83L531.8050000000001 2515.21L529.7520000000001 2512.14L529.7520000000001 2510.27C532.782 2507.56 534.7210000000001 2503.44 534.734 2498.84L534.897 2496.23L554.74 2496.23C556.7570000000001 2496.23 558.399 2494.59 558.399 2492.57L558.399 2465.19C558.399 2463.17 556.757 2461.53 554.74 2461.53ZM556.063 2492.57C556.063 2493.3 555.47 2493.9 554.74 2493.9L535.043 2493.9L535.398 2488.21C535.44 2487.54 535.4150000000001 2486.88 535.328 2486.2400000000002L549.836 2471.7400000000002L549.836 2475.15C549.836 2475.79 550.359 2476.31 551.004 2476.31C551.648 2476.31 552.171 2475.79 552.171 2475.15L552.171 2468.92C552.171 2468.28 551.648 2467.76 551.004 2467.76L544.7760000000001 2467.76C544.1310000000001 2467.76 543.6080000000001 2468.28 543.6080000000001 2468.92C543.6080000000001 2469.57 544.1310000000001 2470.09 544.7760000000001 2470.09L548.1850000000001 2470.09L534.6060000000001 2483.6600000000003C534.1590000000001 2482.63 533.5330000000001 2481.6700000000005 532.7370000000001 2480.8300000000004C530.96 2478.9400000000005 528.5880000000001 2477.8500000000004 526.0160000000001 2477.7300000000005L526.0160000000001 2465.1900000000005C526.0160000000001 2464.4600000000005 526.609 2463.8700000000003 527.339 2463.8700000000003L554.74 2463.8700000000003C555.47 2463.8700000000003 556.063 2464.4600000000005 556.063 2465.1900000000005ZM521.112 2511.32C514.903 2511.32 509.85099999999994 2505.73 509.825 2498.8500000000004C510.176 2495.3700000000003 512.12 2493.1900000000005 512.8439999999999 2492.4900000000002C514.944 2492.46 523.6779999999999 2492.23 529.395 2490.2500000000005C530.355 2491.6900000000005 532.399 2495.2000000000003 532.399 2498.8000000000006C532.399 2505.7000000000007 527.335 2511.3200000000006 521.112 2511.3200000000006ZM511.188 2482.43C512.63 2480.89 514.585 2480.0499999999997 516.691 2480.0499999999997L525.5310000000001 2480.0499999999997C527.638 2480.0499999999997 529.5920000000001 2480.89 531.0350000000001 2482.43C532.4770000000001 2483.96 533.1990000000001 2485.96 533.0680000000001 2488.06L532.8480000000001 2491.58C531.859 2489.5699999999997 530.8360000000001 2488.23 530.753 2488.12C530.433 2487.71 529.8770000000001 2487.56 529.3910000000001 2487.7599999999998C523.527 2490.1299999999997 512.5040000000001 2490.16 512.393 2490.16C512.1310000000001 2490.16 511.877 2490.25 511.672 2490.41C511.59000000000003 2490.47 510.511 2491.3399999999997 509.46200000000005 2492.97L509.15500000000003 2488.06C509.02400000000006 2485.96 509.74600000000004 2483.96 511.18800000000005 2482.43ZM498.615 2528.67L498.615 2523.76C498.615 2522.05 499.771 2520.53 501.425 2520.0800000000004L510.64300000000003 2517.57L514.315 2523.0800000000004C514.7180000000001 2523.6800000000003 515.363 2524.07 516.085 2524.1400000000003C516.166 2524.1500000000005 516.246 2524.1500000000005 516.326 2524.1500000000005C516.8140000000001 2524.1500000000005 517.2860000000001 2524.0000000000005 517.6850000000001 2523.7300000000005C517.888 2524.2700000000004 518.216 2524.7500000000005 518.633 2525.1300000000006L517.6360000000001 2529.9900000000007L507.3330000000001 2529.9900000000007L507.3330000000001 2526.1800000000007C507.3330000000001 2525.540000000001 506.81000000000006 2525.0100000000007 506.1660000000001 2525.0100000000007C505.52100000000013 2525.0100000000007 504.9980000000001 2525.540000000001 504.9980000000001 2526.1800000000007L504.9980000000001 2529.9900000000007L499.9380000000001 2529.9900000000007C499.2080000000001 2529.9900000000007 498.6150000000001 2529.4000000000005 498.6150000000001 2528.6700000000005ZM543.608 2523.76L543.608 2528.67C543.608 2529.4 543.015 2529.9900000000002 542.285 2529.9900000000002L537.225 2529.9900000000002L537.225 2526.1800000000003C537.225 2525.5400000000004 536.702 2525.01 536.057 2525.01C535.413 2525.01 534.89 2525.5400000000004 534.89 2526.1800000000003L534.89 2529.9900000000002L524.587 2529.9900000000002L523.59 2525.13C524.0070000000001 2524.75 524.335 2524.27 524.538 2523.73C524.937 2524 525.409 2524.15 525.897 2524.15C525.9770000000001 2524.15 526.057 2524.15 526.138 2524.14C526.86 2524.0699999999997 527.505 2523.68 527.908 2523.08L531.58 2517.5699999999997L540.798 2520.08C542.453 2520.5299999999997 543.608 2522.0499999999997 543.608 2523.7599999999998ZM538.129 2468.1C537.673 2467.64 536.933 2467.64 536.477 2468.1L534.189 2470.38L531.901 2468.1C531.4449999999999 2467.64 530.7059999999999 2467.64 530.25 2468.1C529.794 2468.5499999999997 529.794 2469.29 530.25 2469.75L532.538 2472.03L530.25 2474.32C529.794 2474.78 529.794 2475.52 530.25 2475.9700000000003C530.478 2476.2000000000003 530.777 2476.3100000000004 531.076 2476.3100000000004C531.374 2476.3100000000004 531.673 2476.2000000000003 531.9010000000001 2475.9700000000003L534.1890000000001 2473.6800000000003L536.4770000000001 2475.9700000000003C536.705 2476.2000000000003 537.0040000000001 2476.3100000000004 537.3030000000001 2476.3100000000004C537.6020000000001 2476.3100000000004 537.9010000000001 2476.2000000000003 538.1290000000001 2475.9700000000003C538.5850000000002 2475.5200000000004 538.5850000000002 2474.78 538.1290000000001 2474.32L535.8410000000001 2472.03L538.1290000000001 2469.75C538.5850000000002 2469.29 538.5850000000002 2468.55 538.1290000000001 2468.1ZM521.112 2517.19L514.895 2512.02C516.76 2513.06 518.8729999999999 2513.66 521.112 2513.66C523.35 2513.66 525.463 2513.06 527.328 2512.02ZM524.428 2520.38L522.841 2518.79L528.3340000000001 2514.22L529.672 2516.22L525.965 2521.7799999999997C525.9590000000001 2521.79 525.945 2521.81 525.908 2521.81C525.871 2521.82 525.8530000000001 2521.7999999999997 525.845 2521.79ZM517.794 2520.38L516.3779999999999 2521.79C516.3699999999999 2521.8 516.352 2521.82 516.3149999999999 2521.81C516.279 2521.81 516.265 2521.79 516.2579999999999 2521.7799999999997L512.5509999999999 2516.22L513.8889999999999 2514.22L519.382 2518.79L517.795 2520.38C517.795 2520.38 517.795 2520.38 517.794 2520.38ZM522.435 2522.45C522.435 2523.18 521.8409999999999 2523.77 521.112 2523.77C520.382 2523.77 519.788 2523.18 519.788 2522.45L519.788 2521.68L521.112 2520.3599999999997L522.435 2521.68ZM521.112 2526.1C521.209 2526.1 521.3059999999999 2526.1 521.4019999999999 2526.0899999999997L522.203 2529.99L520.02 2529.99L520.821 2526.0899999999997C520.917 2526.1 521.014 2526.1 521.1120000000001 2526.1ZM551.829 2481.79C551.3729999999999 2481.33 550.6339999999999 2481.33 550.178 2481.79L547.89 2484.08L545.602 2481.79C545.146 2481.33 544.406 2481.33 543.9499999999999 2481.79C543.4939999999999 2482.24 543.4939999999999 2482.98 543.9499999999999 2483.44L546.2379999999999 2485.73L543.9499999999999 2488.01C543.4939999999999 2488.4700000000003 543.4939999999999 2489.21 543.9499999999999 2489.6600000000003C544.1779999999999 2489.8900000000003 544.477 2490.0000000000005 544.776 2490.0000000000005C545.0749999999999 2490.0000000000005 545.3739999999999 2489.8900000000003 545.602 2489.6600000000003L547.89 2487.38L550.178 2489.6600000000003C550.406 2489.8900000000003 550.705 2490.0000000000005 551.004 2490.0000000000005C551.302 2490.0000000000005 551.601 2489.8900000000003 551.8290000000001 2489.6600000000003C552.2850000000001 2489.2100000000005 552.2850000000001 2488.4700000000003 551.8290000000001 2488.01L549.541 2485.73L551.8290000000001 2483.44C552.2850000000001 2482.98 552.2850000000001 2482.2400000000002 551.8290000000001 2481.79Z " fill="#347c9f" fill-opacity="1" transform="matrix(1,0,0,1,-496,-2461)"></path></svg>